inDegrees=no
num_controls=7
num_derivatives=13
num_iterations=125
num_multipliers=7
num_parameters=0
num_slacks=7
num_states=26
objective=0.431103
objective_accelerations=0.050053
objective_balance=0.006727
objective_effort=0.031075
objective_height=0.342088
objective_ligament=0.001161
solver_duration=1597.305251
status=Solve_Succeeded
success=true
DataType=double
version=3
OpenSimVersion=4.5
endheader
time	/jointset/ground_pelvis/pelvis_tilt/value	/jointset/ground_pelvis/pelvis_tx/value	/jointset/ground_pelvis/pelvis_ty/value	/jointset/hip_l/hip_flexion_l/value	/jointset/hip_l/hip_adduction_l/value	/jointset/hip_l/hip_rotation_l/value	/jointset/back/lumbar_extension/value	/jointset/patellofemoral_l/patellar_flexion_l/value	/jointset/knee_l/knee_flexion_l/value	/jointset/knee_l/knee_adduction_l/value	/jointset/knee_l/knee_rotation_l/value	/jointset/ankle_l/ankle_angle_l/value	/jointset/subtalar_l/subtalar_angle_l/value	/jointset/ground_pelvis/pelvis_tilt/speed	/jointset/ground_pelvis/pelvis_tx/speed	/jointset/ground_pelvis/pelvis_ty/speed	/jointset/hip_l/hip_flexion_l/speed	/jointset/hip_l/hip_adduction_l/speed	/jointset/hip_l/hip_rotation_l/speed	/jointset/back/lumbar_extension/speed	/jointset/patellofemoral_l/patellar_flexion_l/speed	/jointset/knee_l/knee_flexion_l/speed	/jointset/knee_l/knee_adduction_l/speed	/jointset/knee_l/knee_rotation_l/speed	/jointset/ankle_l/ankle_angle_l/speed	/jointset/subtalar_l/subtalar_angle_l/speed	/forceset/tau_hip_flexion_l	/forceset/tau_hip_adduction_l	/forceset/tau_hip_rotation_l	/forceset/tau_knee_flexion_l	/forceset/tau_ankle_angle_l	/forceset/tau_subtalar_angle_l	/forceset/tau_lumbar_extension	lambda_cid13_p0	lambda_cid13_p1	lambda_cid13_p2	lambda_cid13_p3	lambda_cid13_p4	lambda_cid13_p5	lambda_cid14_p0	/jointset/ground_pelvis/pelvis_tilt/accel	/jointset/ground_pelvis/pelvis_tx/accel	/jointset/ground_pelvis/pelvis_ty/accel	/jointset/hip_l/hip_flexion_l/accel	/jointset/hip_l/hip_adduction_l/accel	/jointset/hip_l/hip_rotation_l/accel	/jointset/back/lumbar_extension/accel	/jointset/patellofemoral_l/patellar_flexion_l/accel	/jointset/knee_l/knee_flexion_l/accel	/jointset/knee_l/knee_adduction_l/accel	/jointset/knee_l/knee_rotation_l/accel	/jointset/ankle_l/ankle_angle_l/accel	/jointset/subtalar_l/subtalar_angle_l/accel	gamma_cid13_p0	gamma_cid13_p1	gamma_cid13_p2	gamma_cid13_p3	gamma_cid13_p4	gamma_cid13_p5	gamma_cid14_p0
0.5	-0.3281607268072853	-0.02769556345228884	0.7679665078281979	1.155333384207839	-0.3050795781609681	0.009338427660258768	-0.3214883564360636	0.8129918113213982	0.812991811321509	-0.1734953447031102	0.1674618513666819	0.16736242471365	-0.01873058023970804	-0.4207358182685694	-0.1595067675864507	-0.5042192676882614	2.098865256963808	0.01149494971306207	0.7026948405161529	-0.6286231334348971	2.108909032562768	2.108909032563149	-0.006077707072847674	0.04198659791211513	0.5548408381509567	0.1046231549859209	-0.1833288288778618	0.01918328903732256	-0.02641196167054045	-0.2588926239235241	0.09928090929559816	0.038272712024586	0.1836519832375218	-6.180815816930038	-18.30940340344833	5.680356368201864	-1.906916158884991	-604.183006474571	-59.71898464633648	-20.73875888207841	0.4761361889360507	0.5427104715662693	-0.4359706117385803	-1.277503494737745	0.686075573142697	-0.3655440552352887	1.600125633219754	-1.336435778118011	-1.33643577811802	0.05222554837893352	-0.08938704689705902	-0.5556489132341161	0.7116452704520074	-4.238277153203523e-07	-4.335820036728529e-07	2.631043348916235e-06	2.875980800566498e-07	-5.039533306436588e-07	-3.066033675352975e-07	-4.099254500614385e-07
0.51	-0.3323434133975304	-0.02926330681041421	0.7629035932712844	1.176254675412602	-0.3049318148675294	0.01634835871121756	-0.3276942457323214	0.8340106076360438	0.8340106076361022	-0.1735571297020142	0.1678768141197449	0.1728816884396073	-0.01765050863286063	-0.4157520475975516	-0.1540287599747335	-0.5082555745758208	2.085116209204827	0.01803003905694401	0.6992044059925878	-0.6124847601903495	2.094563594176732	2.094563594177058	-0.006274138802725865	0.04100403764092698	0.5489229353743493	0.1113656009162446	-0.1894043364234345	0.0195588858836986	-0.02648690480966301	-0.2618687875494624	0.09776848444885763	0.03832222639032973	0.188764263946221	-6.895569556280474	-18.10502001568744	5.532702606014314	-1.662399211037938	-608.4933108666376	-59.39346629269676	-19.45060417369091	0.5168814458261554	0.552374327238927	-0.3713471997778088	-1.465167790949921	0.6327274581483203	-0.3541903621285274	1.631188014018499	-1.526513878365786	-1.526513878374135	-0.05477343966101825	-0.1034841712002134	-0.623189223854443	0.6514687715723995	-3.925092595797869e-07	-3.39094700723597e-07	2.515802572496181e-06	2.820647449234649e-07	-4.695894368401167e-07	-2.140652255648588e-07	-3.855375038930608e-07
0.52	-0.336474785493137	-0.0307758644081695	0.7578035383509926	1.197030163664881	-0.3047196003120244	0.02332070597469832	-0.3337366523273445	0.8548773663649253	0.8548773663649306	-0.1736207181994149	0.1682817925393019	0.1783391074850024	-0.01650382766326001	-0.410472919340873	-0.1484696155124363	-0.511647340363908	2.069704666466981	0.02438520212632128	0.6951780830205667	-0.5959265931879523	2.078501515409916	2.078501515410186	-0.006438406772197032	0.03998973121091797	0.5424719020385265	0.1179450275365625	-0.1954798439690077	0.01993448273007408	-0.02656184794878377	-0.264844951175401	0.09625605960211693	0.03837174075607277	0.19387654465492	-7.615579529194033	-17.90123937362752	5.386886609635855	-1.43266390024429	-612.9079825875664	-59.1509384939634	-18.16150898090781	0.5352077060682219	0.5589378416822997	-0.30706239184414	-1.610002490510675	0.6500903182417651	-0.4727217449264646	1.684084384789689	-1.679763854274222	-1.679763854274222	0.0586583004603384	-0.09573627866122982	-0.6622750250772145	0.679041408450864	-3.633487776557541e-07	-2.49594143935377e-07	2.405863378830214e-06	2.780367506696195e-07	-4.400670433477621e-07	-1.277912400074217e-07	-3.621873926347068e-07
0.53	-0.3405519985038506	-0.0322324817103011	0.7526728293325021	1.217643449132523	-0.3044446147446647	0.03025013854115201	-0.3396114228704605	0.875575105891776	0.8755751058915622	-0.1736854972705311	0.1686764086139444	0.1837294955402497	-0.01529203164678783	-0.4049249149169375	-0.1428453914482157	-0.5143817423914002	2.052682922554501	0.03057957056249577	0.6906245088808625	-0.5789675269935238	2.060768542411303	2.060768542411683	-0.006511638857512701	0.03893008165274937	0.5355247438001393	0.1243829860243091	-0.201457954055357	0.02011900899488812	-0.02657273454776022	-0.2678931231376618	0.09481365480585623	0.03831534222815756	0.1988897097056366	-8.318839068744285	-17.64902150147199	5.227210220227159	-1.176333314882876	-617.3510862488405	-58.86830385854029	-16.8746244679779	0.5712849817235812	0.5654878928507844	-0.2398058788490428	-1.788724040268271	0.5989277527012487	-0.4595681073661357	1.71081600302767	-1.861671170454263	-1.861671170437895	-0.03941053937279154	-0.1120546788250025	-0.7230584541702486	0.6212509181536449	-3.340915224955833e-07	-1.599215171805366e-07	2.292854272089687e-06	2.738698824187772e-07	-4.10962513993334e-07	-4.479140740489645e-08	-3.382624244392129e-07
0.54	-0.3445723938360913	-0.03363259213097872	0.7475181409396072	1.238078424421311	-0.304108721963664	0.03713145679443389	-0.3453148030983806	0.8960871942590806	0.8960871942586488	-0.1737508279777696	0.1690602331161191	0.1890479875669229	-0.01401684047559477	-0.3991093836463076	-0.1371682392216413	-0.5164432152447842	2.034042630695959	0.03656664485450872	0.6855552203862089	-0.5616485301487651	2.041371283500712	2.041371283501201	-0.006548733996639286	0.03783141671736762	0.5280926963237208	0.130624058480739	-0.2074360641417067	0.02030353525970185	-0.02658362114673513	-0.2709412950999228	0.09337125000959542	0.03825894370024196	0.203902874756353	-9.027386105600032	-17.39690358104545	5.068723264813634	-0.9331724874573176	-621.8955670529263	-58.66102465510912	-15.59476561023413	0.5887130754070793	0.5695234741530308	-0.1724765570225081	-1.933712079722951	0.6086314894094598	-0.5758646159163412	1.756070514855763	-2.012621036669966	-2.012621036669968	0.06588568969815496	-0.1035393541038618	-0.7592528726834888	0.639664202187517	-3.047271990741536e-07	-7.005851514347774e-08	2.176448665777306e-06	2.695493663414703e-07	-3.823203024085269e-07	3.458595809857739e-08	-3.13701444313266e-07
0.55	-0.3485333943867081	-0.03497572684142129	0.7423462304614361	1.258319121732426	-0.3037138758562022	0.04395951038745689	-0.3508432633852879	0.9163971776043994	0.916397177604264	-0.1738160631892051	0.1694328174322469	0.1942898758943358	-0.01268009041418716	-0.3930506890339809	-0.1314553704702526	-0.5178231039257404	2.013836291430203	0.04236447787272993	0.6799738480118506	-0.543994582056762	2.020357899775817	2.020357899776037	-0.006494681635230413	0.03668334798713373	0.5202115498762488	0.1366870486250298	-0.2132900935477764	0.02036747775324286	-0.02652644126633336	-0.2740184613509912	0.09194950856709837	0.03807786405721137	0.2087857385381516	-9.731993960844243	-17.08384688071416	4.891975841871893	-0.6475266316456532	-626.4041954148902	-58.38188788766728	-14.32595681072678	0.6204332198596627	0.5727218736702151	-0.1034518935356931	-2.103205690584515	0.5593331002856446	-0.5617758905331486	1.777398732761745	-2.185759847575526	-2.185759847615834	-0.02424360211537051	-0.1211765202114665	-0.8135310198676011	0.5835353801226921	-2.740774463384263e-07	1.460296519807782e-08	2.048394118159288e-06	2.622886547838332e-07	-3.517491541217115e-07	1.073696995364238e-07	-2.87950721818892e-07
0.5600000000000001	-0.3524326108780586	-0.03626162220474227	0.7371639797224749	1.278349933482767	-0.3032622566401068	0.05072924978826888	-0.3561937158359973	0.9364890145510341	0.9364890145511922	-0.1738806395993219	0.1697937738835269	0.1994507556594563	-0.01128392665942207	-0.3867525717930863	-0.1257203697973269	-0.5185112674028379	1.992065518541145	0.04792126658123887	0.673892381943989	-0.5260469629091927	1.997742003763872	1.997742003763823	-0.006416973732926495	0.03550584374776726	0.5118909838652346	0.1425067971522342	-0.2191441229538464	0.02043142024678399	-0.02646926138593088	-0.2770956276020597	0.09052776712460137	0.03789678441418094	0.2136686023199499	-10.44157815800277	-16.77014350157702	4.715383632224611	-0.3758693371097234	-631.0071627593275	-58.16890007885984	-13.07110812132659	0.6365976011206543	0.5739498584604389	-0.03413151625078291	-2.246598804383122	0.5604226274670034	-0.6758833546170157	1.814804725968989	-2.333123494079849	-2.333123494079808	0.07061679787716366	-0.1094264559303747	-0.8471367853919498	0.5910158787702676	-2.41885178425542e-07	9.302261950502962e-08	1.906360840974507e-06	2.514997086498002e-07	-3.18863281792486e-07	1.722410920955176e-07	-2.607723084824051e-07
0.5700000000000001	-0.3562677645271738	-0.03749011282123919	0.7319783187857093	1.298155451146241	-0.3027561420094927	0.05743562937608298	-0.3613633040308225	0.9563468828930947	0.9563468828930574	-0.1739439889099773	0.1701427581970537	0.2045263850292811	-0.009830632638305742	-0.3802436238439648	-0.1199790409701815	-0.5185032859183859	1.968786988984464	0.05325745389077114	0.6673066214669091	-0.5078352751931319	1.973574619402717	1.973574619402582	-0.006255154434084133	0.03428980476298437	0.5031695375758882	0.1481043875972427	-0.2247926628032159	0.02041299771295502	-0.02634981207036687	-0.2802426993499691	0.08922231374105177	0.03756683106555308	0.218355152123851	-11.11372161564683	-16.38881482435677	4.517128574375483	-0.08904584026408556	-635.5170440328053	-57.86775197591601	-11.83270171611278	0.6632102338108037	0.574080353998673	0.03584803334182377	-2.406155334068572	0.5133054272667147	-0.6616607406346574	1.829660923830362	-2.49705361423523	-2.497053614248204	-0.0113207673383347	-0.1282414555372597	-0.8944204023787028	0.5367506322316413	-2.107594073409741e-07	1.52854029363552e-07	1.758879456266035e-06	2.377066323435526e-07	-2.86341805622331e-07	2.235690125344771e-07	-2.344867080094015e-07
0.58	-0.3600367953283972	-0.03866121895763325	0.7267962546742981	1.317720648453596	-0.3021980477768694	0.06407380368985009	-0.3663497133226059	0.9759553758501234	0.9759553758498898	-0.1740057770802895	0.1704794723535758	0.2095128455658779	-0.00832283871176623	-0.3735280022147272	-0.1142434737767526	-0.5177919023319886	1.944001447317463	0.0583171869831183	0.6602513271345825	-0.4894111823008424	1.947866926757487	1.947866926757265	-0.006104745664286061	0.03305181234680093	0.4940572172196331	0.1534067782368713	-0.2304412026525856	0.02039457517912609	-0.0262303627548024	-0.2833897710978787	0.08791686035750224	0.03723687771692528	0.2230417019277519	-11.79110049565378	-16.00585582893519	4.317799998219781	0.1855158419614428	-640.120987621687	-57.62314131889334	-10.61289735982568	0.6779323371438909	0.5727975317171653	0.1065489041383003	-2.548001226447218	0.5051317840299796	-0.7697901256663658	1.857285761214714	-2.641185150894809	-2.641185150894821	0.06833469206830563	-0.1138171422104854	-0.925311598773717	0.5319759176942995	-1.810225623583999e-07	1.884774929636552e-07	1.60430286175927e-06	2.200012004641886e-07	-2.54294891891896e-07	2.572589227704711e-07	-2.093638405679111e-07
